<mxfile host="app.diagrams.net" modified="2023-05-08T11:08:44.765Z" agent="Mozilla/5.0 (Windows NT 10.0; Win64; x64) AppleWebKit/537.36 (KHTML, like Gecko) Chrome/113.0.0.0 Safari/537.36" version="21.2.9" etag="B0nzPmvqLjdLCrOWcLWy" type="github">
  <diagram name="Page-1" id="D5mO7YPhFwg1f_xliuk0">
    <mxGraphModel>
      <root>
        <mxCell id="0" />
        <mxCell id="1" parent="0" />
      </root>
    </mxGraphModel>
  </diagram>
</mxfile>
